<svg id="layer" xmlns="http://www.w3.org/2000/svg" viewBox="0 0 406.41 366.13"><defs><style>.cls-1{fill:#5b69de;}</style></defs><path class="cls-1" d="M320.94,135.34C279,29.55,141.08,9.79,63.28,95.79,11,153.6,8.79,226.71,53,219.84c-13.34,45.58,33.36,67.82,33.36,45.58,0,0,4.45,25.58,40,34.47,26.44,6.61,47.32-8.36,38.91-15.56-14.56-12.49-15.71-33.61-7-47.75l.08-.13a29.66,29.66,0,0,1,25.79-14.39v-.15c37,4.79,69.91,94.59-82.17,144.83C282,366.74,358.68,230.55,320.94,135.34Z" transform="translate(-21.79 -41.94)"/><path class="cls-1" d="M46.13,378.16l4.42.93c2.88.64,7.11,1.47,12.43,2.39s11.83,2,19.29,2.83,15.86,1.58,25,1.93a253.84,253.84,0,0,0,29.36-.43c5.17-.4,10.46-.68,15.84-1.49,5.38-.65,10.85-1.29,16.35-2.48,5.52-1,11.1-2,16.65-3.59s11.22-2.65,16.78-4.56a286.59,286.59,0,0,0,33.17-12.18c5.35-2.61,10.81-4.84,16-7.7L266.61,345c5-3,9.66-6.53,14.52-9.45l3.59-2.28,1.8-1.11,2.53-1.49c2.55-1.54,5.14-3,7.69-4.4s5.13-2.79,7.7-4.07c2.95-1.34,6.09-2.6,9.1-3.8s6.06-2.34,9-3.42l8.9-2.4a128.63,128.63,0,0,1,34.34-4.36c11,.43,21.06,2,29.57,5.25,4.25,1.28,8.05,3.48,11.45,5.13a78.56,78.56,0,0,1,8.72,6.08,47.3,47.3,0,0,1,9.91,10.68,26.51,26.51,0,0,1,2.58,4.58,2.35,2.35,0,0,1-1.33,3.06,2.38,2.38,0,0,1-1.76,0l-.23-.1s-1.34-.55-4.12-1.4a65.69,65.69,0,0,0-11.78-2.36,76,76,0,0,0-17.51.07c-6.51.46-13.8,2.42-21.42,4.48a205.72,205.72,0,0,0-24.4,9.73l-6.49,3c-2.09,1.09-4.12,2.31-6.26,3.35s-4.24,2.11-6.51,3.18c-2.49,1.44-5.07,2.78-7.65,4.17s-5.23,2.7-7.92,4l-7.9,3.66c-5.82,2.68-11.69,5.34-17.8,7.64L266.43,389,247.54,395a322.58,322.58,0,0,1-38.27,9,181.34,181.34,0,0,1-19.06,2.62c-6.29.8-12.56,1-18.7,1.23-6.12.38-12.16.22-18,.07-5.89,0-11.63-.53-17.19-1a273.48,273.48,0,0,1-31-4.65,259,259,0,0,1-25.43-6.58c-7.47-2.21-13.8-4.57-19-6.58s-9.21-3.68-11.89-4.87l-4.15-1.78a2.23,2.23,0,0,1,1.34-4.24Z" transform="translate(-21.79 -41.94)"/><path class="cls-1" d="M322.84,289.71s1.19-2.11,3.47-5.55c1.06-1.79,2.59-3.78,4.12-6.11s2.95-5.08,4.72-7.73,3.38-5.91,5.24-9,3.43-6.55,5.17-9.92c1.51-3.49,3.24-6.92,4.53-10.53,1.49-3.51,2.54-7.21,3.75-10.73.92-3.67,2-7.18,2.61-10.79.85-3.5,1.26-7.1,1.82-10.48.38-3.48.79-6.79,1-10s.32-6.37.49-9.21c.13-5.84.16-10.83.11-14.39s-.05-5.65-.05-5.65v-.51a22.18,22.18,0,0,1,44.35-.69s.06,2.37.15,6.51-.09,10.24-.71,17.65c-.52,3.75-.8,7.76-1.73,12.08a132.37,132.37,0,0,1-3.19,13.49,117.76,117.76,0,0,1-5.31,14,102.52,102.52,0,0,1-7.4,13.61,96.47,96.47,0,0,1-9.28,12.2c-3.1,3.93-7,7-10.32,10.25-3.7,2.88-7.19,5.66-10.74,7.91s-6.9,4.23-10.24,5.8-6.47,2.8-9.13,3.94a67,67,0,0,1-7.06,2.23C325.22,289.22,322.84,289.71,322.84,289.71Z" transform="translate(-21.79 -41.94)"/></svg>